<svg width="63" height="66" viewBox="0 0 63 66" fill="none" xmlns="http://www.w3.org/2000/svg">
<g clip-path="url(#clip0_118_428)">
<path d="M54.3581 20.625C55.3879 20.625 56.3755 21.0596 57.1036 21.8332C57.8318 22.6068 58.2409 23.656 58.2409 24.75V45.375C58.2409 46.469 57.8318 47.5182 57.1036 48.2918C56.3755 49.0654 55.3879 49.5 54.3581 49.5H7.76545C6.73569 49.5 5.7481 49.0654 5.01995 48.2918C4.2918 47.5182 3.88272 46.469 3.88272 45.375V24.75C3.88272 23.656 4.2918 22.6068 5.01995 21.8332C5.7481 21.0596 6.73569 20.625 7.76545 20.625H54.3581ZM7.76545 16.5C5.70592 16.5 3.73075 17.3692 2.27445 18.9164C0.818143 20.4635 0 22.562 0 24.75L0 45.375C0 47.563 0.818143 49.6615 2.27445 51.2086C3.73075 52.7558 5.70592 53.625 7.76545 53.625H54.3581C56.4177 53.625 58.3928 52.7558 59.8491 51.2086C61.3054 49.6615 62.1236 47.563 62.1236 45.375V24.75C62.1236 22.562 61.3054 20.4635 59.8491 18.9164C58.3928 17.3692 56.4177 16.5 54.3581 16.5H7.76545Z" fill="white"/>
<path d="M50.4756 42.2812C50.4756 42.0077 50.5779 41.7454 50.7599 41.552C50.9419 41.3586 51.1888 41.25 51.4463 41.25H53.3876C53.6451 41.25 53.892 41.3586 54.074 41.552C54.256 41.7454 54.3583 42.0077 54.3583 42.2812V44.3438C54.3583 44.6173 54.256 44.8796 54.074 45.073C53.892 45.2664 53.6451 45.375 53.3876 45.375H51.4463C51.1888 45.375 50.9419 45.2664 50.7599 45.073C50.5779 44.8796 50.4756 44.6173 50.4756 44.3438V42.2812ZM50.4756 34.0312C50.4756 33.7577 50.5779 33.4954 50.7599 33.302C50.9419 33.1086 51.1888 33 51.4463 33H53.3876C53.6451 33 53.892 33.1086 54.074 33.302C54.256 33.4954 54.3583 33.7577 54.3583 34.0312V36.0938C54.3583 36.3673 54.256 36.6296 54.074 36.823C53.892 37.0164 53.6451 37.125 53.3876 37.125H51.4463C51.1888 37.125 50.9419 37.0164 50.7599 36.823C50.5779 36.6296 50.4756 36.3673 50.4756 36.0938V34.0312ZM31.062 34.0312C31.062 33.7577 31.1642 33.4954 31.3463 33.302C31.5283 33.1086 31.7752 33 32.0327 33H33.974C34.2315 33 34.4784 33.1086 34.6604 33.302C34.8424 33.4954 34.9447 33.7577 34.9447 34.0312V36.0938C34.9447 36.3673 34.8424 36.6296 34.6604 36.823C34.4784 37.0164 34.2315 37.125 33.974 37.125H32.0327C31.7752 37.125 31.5283 37.0164 31.3463 36.823C31.1642 36.6296 31.062 36.3673 31.062 36.0938V34.0312ZM38.8274 34.0312C38.8274 33.7577 38.9297 33.4954 39.1117 33.302C39.2938 33.1086 39.5407 33 39.7981 33H45.6222C45.8796 33 46.1265 33.1086 46.3086 33.302C46.4906 33.4954 46.5929 33.7577 46.5929 34.0312V36.0938C46.5929 36.3673 46.4906 36.6296 46.3086 36.823C46.1265 37.0164 45.8796 37.125 45.6222 37.125H39.7981C39.5407 37.125 39.2938 37.0164 39.1117 36.823C38.9297 36.6296 38.8274 36.3673 38.8274 36.0938V34.0312ZM42.7101 42.2812C42.7101 42.0077 42.8124 41.7454 42.9944 41.552C43.1765 41.3586 43.4234 41.25 43.6808 41.25H45.6222C45.8796 41.25 46.1265 41.3586 46.3086 41.552C46.4906 41.7454 46.5929 42.0077 46.5929 42.2812V44.3438C46.5929 44.6173 46.4906 44.8796 46.3086 45.073C46.1265 45.2664 45.8796 45.375 45.6222 45.375H43.6808C43.4234 45.375 43.1765 45.2664 42.9944 45.073C42.8124 44.8796 42.7101 44.6173 42.7101 44.3438V42.2812ZM23.2965 34.0312C23.2965 33.7577 23.3988 33.4954 23.5808 33.302C23.7629 33.1086 24.0098 33 24.2672 33H26.2086C26.466 33 26.7129 33.1086 26.8949 33.302C27.077 33.4954 27.1792 33.7577 27.1792 34.0312V36.0938C27.1792 36.3673 27.077 36.6296 26.8949 36.823C26.7129 37.0164 26.466 37.125 26.2086 37.125H24.2672C24.0098 37.125 23.7629 37.0164 23.5808 36.823C23.3988 36.6296 23.2965 36.3673 23.2965 36.0938V34.0312ZM15.5311 34.0312C15.5311 33.7577 15.6333 33.4954 15.8154 33.302C15.9974 33.1086 16.2443 33 16.5018 33H18.4431C18.7006 33 18.9475 33.1086 19.1295 33.302C19.3115 33.4954 19.4138 33.7577 19.4138 34.0312V36.0938C19.4138 36.3673 19.3115 36.6296 19.1295 36.823C18.9475 37.0164 18.7006 37.125 18.4431 37.125H16.5018C16.2443 37.125 15.9974 37.0164 15.8154 36.823C15.6333 36.6296 15.5311 36.3673 15.5311 36.0938V34.0312ZM7.76562 34.0312C7.76562 33.7577 7.86789 33.4954 8.04993 33.302C8.23197 33.1086 8.47887 33 8.73631 33H10.6777C10.9351 33 11.182 33.1086 11.364 33.302C11.5461 33.4954 11.6483 33.7577 11.6483 34.0312V36.0938C11.6483 36.3673 11.5461 36.6296 11.364 36.823C11.182 37.0164 10.9351 37.125 10.6777 37.125H8.73631C8.47887 37.125 8.23197 37.0164 8.04993 36.823C7.86789 36.6296 7.76562 36.3673 7.76562 36.0938V34.0312ZM50.4756 25.7812C50.4756 25.5077 50.5779 25.2454 50.7599 25.052C50.9419 24.8586 51.1888 24.75 51.4463 24.75H53.3876C53.6451 24.75 53.892 24.8586 54.074 25.052C54.256 25.2454 54.3583 25.5077 54.3583 25.7812V27.8438C54.3583 28.1173 54.256 28.3796 54.074 28.573C53.892 28.7664 53.6451 28.875 53.3876 28.875H51.4463C51.1888 28.875 50.9419 28.7664 50.7599 28.573C50.5779 28.3796 50.4756 28.1173 50.4756 27.8438V25.7812ZM42.7101 25.7812C42.7101 25.5077 42.8124 25.2454 42.9944 25.052C43.1765 24.8586 43.4234 24.75 43.6808 24.75H45.6222C45.8796 24.75 46.1265 24.8586 46.3086 25.052C46.4906 25.2454 46.5929 25.5077 46.5929 25.7812V27.8438C46.5929 28.1173 46.4906 28.3796 46.3086 28.573C46.1265 28.7664 45.8796 28.875 45.6222 28.875H43.6808C43.4234 28.875 43.1765 28.7664 42.9944 28.573C42.8124 28.3796 42.7101 28.1173 42.7101 27.8438V25.7812ZM34.9447 25.7812C34.9447 25.5077 35.047 25.2454 35.229 25.052C35.411 24.8586 35.6579 24.75 35.9154 24.75H37.8567C38.1142 24.75 38.3611 24.8586 38.5431 25.052C38.7252 25.2454 38.8274 25.5077 38.8274 25.7812V27.8438C38.8274 28.1173 38.7252 28.3796 38.5431 28.573C38.3611 28.7664 38.1142 28.875 37.8567 28.875H35.9154C35.6579 28.875 35.411 28.7664 35.229 28.573C35.047 28.3796 34.9447 28.1173 34.9447 27.8438V25.7812ZM27.1792 25.7812C27.1792 25.5077 27.2815 25.2454 27.4636 25.052C27.6456 24.8586 27.8925 24.75 28.1499 24.75H30.0913C30.3487 24.75 30.5956 24.8586 30.7777 25.052C30.9597 25.2454 31.062 25.5077 31.062 25.7812V27.8438C31.062 28.1173 30.9597 28.3796 30.7777 28.573C30.5956 28.7664 30.3487 28.875 30.0913 28.875H28.1499C27.8925 28.875 27.6456 28.7664 27.4636 28.573C27.2815 28.3796 27.1792 28.1173 27.1792 27.8438V25.7812ZM19.4138 25.7812C19.4138 25.5077 19.5161 25.2454 19.6981 25.052C19.8801 24.8586 20.127 24.75 20.3845 24.75H22.3258C22.5833 24.75 22.8302 24.8586 23.0122 25.052C23.1943 25.2454 23.2965 25.5077 23.2965 25.7812V27.8438C23.2965 28.1173 23.1943 28.3796 23.0122 28.573C22.8302 28.7664 22.5833 28.875 22.3258 28.875H20.3845C20.127 28.875 19.8801 28.7664 19.6981 28.573C19.5161 28.3796 19.4138 28.1173 19.4138 27.8438V25.7812ZM7.76562 25.7812C7.76562 25.5077 7.86789 25.2454 8.04993 25.052C8.23197 24.8586 8.47887 24.75 8.73631 24.75H14.5604C14.8178 24.75 15.0647 24.8586 15.2468 25.052C15.4288 25.2454 15.5311 25.5077 15.5311 25.7812V27.8438C15.5311 28.1173 15.4288 28.3796 15.2468 28.573C15.0647 28.7664 14.8178 28.875 14.5604 28.875H8.73631C8.47887 28.875 8.23197 28.7664 8.04993 28.573C7.86789 28.3796 7.76562 28.1173 7.76562 27.8438V25.7812ZM7.76562 42.2812C7.76562 42.0077 7.86789 41.7454 8.04993 41.552C8.23197 41.3586 8.47887 41.25 8.73631 41.25H10.6777C10.9351 41.25 11.182 41.3586 11.364 41.552C11.5461 41.7454 11.6483 42.0077 11.6483 42.2812V44.3438C11.6483 44.6173 11.5461 44.8796 11.364 45.073C11.182 45.2664 10.9351 45.375 10.6777 45.375H8.73631C8.47887 45.375 8.23197 45.2664 8.04993 45.073C7.86789 44.8796 7.76562 44.6173 7.76562 44.3438V42.2812ZM15.5311 42.2812C15.5311 42.0077 15.6333 41.7454 15.8154 41.552C15.9974 41.3586 16.2443 41.25 16.5018 41.25H37.8567C38.1142 41.25 38.3611 41.3586 38.5431 41.552C38.7252 41.7454 38.8274 42.0077 38.8274 42.2812V44.3438C38.8274 44.6173 38.7252 44.8796 38.5431 45.073C38.3611 45.2664 38.1142 45.375 37.8567 45.375H16.5018C16.2443 45.375 15.9974 45.2664 15.8154 45.073C15.6333 44.8796 15.5311 44.6173 15.5311 44.3438V42.2812Z" fill="white"/>
</g>
<defs>
<clipPath id="clip0_118_428">
<rect width="62.1236" height="66" fill="white"/>
</clipPath>
</defs>
</svg>
